<svg width="142" height="105" viewBox="0 0 142 105" fill="none" xmlns="http://www.w3.org/2000/svg">
<path d="M17.687 66.0201C16.4246 68.3243 14.9903 70.4137 13.1737 72.3032C11.1418 74.417 8.971 76.3904 7.01664 78.5802C4.89753 80.9548 2.94618 83.5492 1.63951 86.4672C0.974765 87.9518 0.462658 89.5025 0.199454 91.1106C-0.0868525 92.8587 -0.130308 94.7025 0.511888 96.3824C1.56553 99.1382 4.01853 100.997 6.62692 102.19C9.69406 103.593 13.0687 104.358 16.4065 104.748C19.9466 105.162 23.5341 105.053 27.0474 104.459C28.722 104.175 30.4704 103.835 32.0584 103.218C32.8087 102.927 33.5034 102.523 33.9528 101.833C34.4066 101.138 34.4691 100.269 34.4881 99.4627C34.5106 98.5103 34.5252 97.5576 34.5436 96.6051C34.5607 95.7308 34.7185 94.7099 34.3349 93.8928C33.6377 92.4076 31.7515 92.6351 30.4083 92.6769C26.9079 92.785 23.4109 92.2099 20.1227 91.0066C19.3182 90.7121 18.5316 90.3768 17.7596 90.0055C17.4252 89.8446 17.0167 89.9136 16.8187 90.2519C16.643 90.5528 16.7296 91.0311 17.0654 91.1928C20.1656 92.6837 23.4943 93.6125 26.9189 93.9393C27.7677 94.0204 28.62 94.0625 29.4726 94.0652C30.2306 94.0674 30.9877 93.9959 31.7449 94.0042C32.1905 94.0091 32.8054 94.0446 33.0527 94.4074C33.2378 94.6791 33.1973 95.0586 33.1924 95.3694C33.1844 95.8727 33.1729 96.3763 33.1632 96.8799C33.1459 97.7779 33.1366 98.6761 33.1104 99.5738C33.0915 100.218 33.0483 100.91 32.5538 101.381C32.0821 101.831 31.3918 102.011 30.7837 102.19C29.9591 102.431 29.1258 102.642 28.2861 102.823C24.986 103.536 21.5894 103.767 18.2214 103.54C14.9433 103.319 11.6501 102.664 8.56753 101.516C6.17284 100.624 3.67226 99.2451 2.32214 96.9891C0.70771 94.2918 1.39474 90.8573 2.44865 88.0792C3.5221 85.2502 5.28779 82.707 7.23721 80.4146C9.12805 78.1916 11.2441 76.1863 13.3077 74.1277C14.9889 72.4503 16.506 70.6626 17.7591 68.6389C18.1496 68.0083 18.5179 67.3647 18.8743 66.714C19.2998 65.9376 18.1127 65.2428 17.687 66.0201Z" fill="white"/>
<path d="M34.3637 95.4619C36.0065 95.4267 36.3814 93.4028 36.6325 92.1423C36.9664 90.4657 37.0604 88.7702 36.9537 87.0664C36.9193 86.5177 36.8797 85.9354 37.0802 85.428C37.1278 85.3078 37.2114 85.1766 37.3159 85.1087C37.4565 85.0179 37.6374 85.0064 37.8297 85.09C38.4257 85.3488 38.5632 86.0669 38.5896 86.6472C38.6262 87.4528 38.5698 88.2674 38.5503 89.0733C38.5307 89.8777 38.388 90.8048 38.6275 91.5879C38.8506 92.3159 39.4529 92.7911 40.1716 92.9845C40.8828 93.1756 41.6158 93.0265 42.3264 93.169C42.5437 93.2127 42.7541 93.2782 42.8812 93.4443C42.9642 93.5538 42.9708 93.6209 43.0069 93.7485C42.9926 93.6979 43.0107 93.7449 42.9981 93.8065C43.0157 93.7213 43.0041 93.7944 42.9714 93.8274C42.8099 93.9922 42.4914 94.1261 42.3388 94.3863C42.1697 94.6742 42.1402 95.0123 42.2483 95.3255C42.4114 95.7991 42.8553 96.0942 43.1809 96.4487C43.0899 96.3495 43.1953 96.528 43.1738 96.4402C43.1474 96.3346 43.1878 96.6061 43.1727 96.4067C43.1738 96.4201 43.2005 96.3176 43.2027 96.3228C43.2167 96.3605 43.1697 96.3858 43.1636 96.3937C42.9879 96.6311 42.7456 96.7991 42.5995 97.0643C42.4395 97.3547 42.407 97.6867 42.5124 98.0007C42.6281 98.3454 42.9576 98.5156 43.1001 98.8272C43.3108 99.2876 43.0984 99.8036 42.6221 99.9865C41.9785 100.234 41.2068 100.072 40.5475 99.9777C38.5552 99.6922 36.5629 99.4064 34.5706 99.1209C34.2034 99.0681 33.8318 99.2112 33.7248 99.6011C33.636 99.924 33.8351 100.394 34.2051 100.447C36.1069 100.719 38.0085 100.992 39.9103 101.265C41.3275 101.468 43.1664 101.834 44.1526 100.477C44.5847 99.8825 44.6667 99.0585 44.3966 98.3797C44.3273 98.2056 44.2478 98.0538 44.137 97.9039C44.0979 97.8514 43.8586 97.4961 43.767 97.487C43.8696 97.4969 43.7772 97.7447 43.7871 97.7584C43.78 97.7483 43.8655 97.6548 43.7995 97.7265C43.9021 97.6151 44.0115 97.5087 44.1114 97.3948C44.6133 96.8209 44.6832 96.1333 44.1936 95.5277C44.0481 95.3478 43.8771 95.1996 43.7101 95.04C43.6702 95.0021 43.4785 94.7969 43.561 94.8943C43.5272 94.8541 43.5319 94.7939 43.5542 94.9099C43.5269 94.7683 43.5478 94.9798 43.5503 95.0109C43.5591 95.1234 43.4114 95.1459 43.5808 95.0563C43.6339 95.0285 43.6865 94.9864 43.7354 94.9512C43.9007 94.8307 44.0509 94.6976 44.1587 94.5213C44.3699 94.177 44.412 93.7738 44.3328 93.3827C44.1771 92.6143 43.5377 92.0609 42.8014 91.8687C42.0577 91.6742 41.2728 91.8563 40.5374 91.6585C40.3033 91.5953 40.0679 91.4957 39.9653 91.2597C39.8308 90.9506 39.8899 90.5375 39.8979 90.2127C39.9202 89.2966 39.9436 88.3802 39.9645 87.464C39.984 86.615 39.9705 85.7336 39.5731 84.9607C38.8676 83.5891 36.8627 83.1183 35.9765 84.5762C35.5937 85.2055 35.5395 85.9981 35.5615 86.7168C35.5898 87.6486 35.6536 88.5669 35.5984 89.5001C35.5398 90.4831 35.3946 91.4564 35.1674 92.4146C35.0722 92.815 34.9903 93.2463 34.8074 93.6184C34.7405 93.7545 34.6652 93.897 34.5535 93.9996C34.4622 94.0838 34.4586 94.0846 34.3637 94.0868C33.4801 94.1055 33.477 95.4806 34.3637 95.4619Z" fill="white"/>
<path d="M44.2993 99.3604C46.1816 100.144 48.1341 100.752 50.1311 101.166C51.1473 101.376 52.1743 101.535 53.2056 101.651C54.0679 101.748 55.0123 101.89 55.8165 101.473C56.6738 101.028 56.9144 100.085 57.0464 99.2069C57.2029 98.1648 57.3432 97.12 57.4697 96.074C57.7134 94.0605 57.8993 92.0404 58.0277 90.0165C58.5481 81.8142 58.1174 73.5597 56.7813 65.451C56.0305 60.896 54.9845 56.391 53.6537 51.9701C53.399 51.125 52.0714 51.485 52.3275 52.3356C54.6116 59.9221 56.0514 67.7549 56.6045 75.6585C56.8814 79.6187 56.9405 83.594 56.7799 87.5607C56.6996 89.5437 56.5646 91.5247 56.3743 93.5003C56.1889 95.423 56.006 97.3741 55.6509 99.2745C55.5896 99.6024 55.5219 100.033 55.2211 100.233C54.9273 100.428 54.5035 100.389 54.171 100.368C53.1066 100.301 52.0428 100.138 50.9963 99.939C48.826 99.5256 46.7042 98.8835 44.6648 98.0342C44.3221 97.8914 43.9088 98.1884 43.8191 98.5144C43.7102 98.9101 43.9553 99.2171 44.2993 99.3604Z" fill="white"/>
<path d="M56.6468 65.8402C58.2329 65.7601 59.5324 64.8297 60.6311 63.753C61.7128 62.6927 62.6903 61.5211 63.5841 60.2997C65.3947 57.8261 66.8012 55.0538 67.7453 52.1382C69.8116 45.7597 69.6725 38.8316 69.3975 32.2086C69.3612 31.3288 69.2379 30.4655 68.8224 29.6778C68.4833 29.035 67.9744 28.4987 67.4029 28.0576C66.2382 27.1585 64.8237 26.6494 63.4348 26.2086C63.1551 26.1197 62.7973 26.2652 62.6581 26.5246C60.1727 31.1588 57.6787 35.809 54.6528 40.1199C52.0826 43.7816 48.9583 47.675 44.5655 49.159C40.5484 50.5163 36.2123 49.8219 32.0654 50.2217C30.0147 50.4195 27.9528 50.8708 26.1819 51.9696C24.4308 53.0562 23.0815 54.6913 22.0292 56.4413C19.7776 60.1861 18.6497 64.487 16.3732 68.2252C16.0825 68.7024 15.7745 69.1686 15.4502 69.6235C15.2346 69.9258 15.3969 70.3886 15.6969 70.5641C16.0421 70.766 16.4216 70.6208 16.6375 70.3174C19.2297 66.6815 20.4585 62.3726 22.4902 58.4424C23.3994 56.683 24.5086 55.0043 26.0537 53.7375C27.5535 52.5081 29.476 51.9269 31.3709 51.6747C35.5822 51.1148 39.9081 51.8392 44.06 50.746C48.62 49.5452 51.9795 46.019 54.7163 42.3649C57.8737 38.1493 60.4449 33.5367 62.9381 28.9085C63.2412 28.3455 63.5434 27.782 63.8457 27.2185C63.5866 27.3241 63.3278 27.4291 63.069 27.5345C64.1906 27.8906 65.3144 28.287 66.2984 28.9465C67.2778 29.6035 67.8917 30.5249 67.9931 31.7127C68.1263 33.2719 68.1056 34.8607 68.1301 36.4248C68.1549 38.0076 68.1538 39.5913 68.096 41.1732C67.9802 44.3353 67.6315 47.4959 66.7855 50.5523C66.0176 53.3268 64.8259 55.9614 63.2508 58.3715C62.3767 59.7087 61.3877 60.9653 60.2934 62.1292C59.3278 63.1559 58.1501 64.3891 56.6468 64.465C55.7661 64.5096 55.7609 65.885 56.6468 65.8402Z" fill="white"/>
<path d="M27.2364 52.3998C27.6555 50.9169 27.9399 49.4012 28.0972 47.8682C28.1739 47.122 28.2171 46.3723 28.227 45.622C28.2356 44.9718 28.2449 44.293 28.0703 43.6607C27.9014 43.0505 27.532 42.4993 26.9701 42.1888C26.4165 41.8829 25.7966 41.8513 25.1987 41.6904C24.2435 41.433 23.485 40.5243 23.4586 39.5243C23.4308 38.4673 24.1277 37.5696 25.0958 37.2124C25.8029 36.9516 26.3392 36.5551 26.4965 35.777C26.6404 35.0638 26.6519 34.3017 26.6525 33.5768C26.6539 32.0619 26.4025 30.6026 26.084 29.1281C25.9674 28.5893 25.8906 27.9994 26.2823 27.5588C26.5986 27.2026 27.0642 27.0027 27.5087 26.8594C28.8442 26.4284 30.2845 26.264 31.6792 26.1718C33.1559 26.0742 34.6374 26.0874 36.116 26.1254C36.7937 26.143 37.4749 26.149 38.1512 26.1982C38.6895 26.2376 39.2632 26.3151 39.7456 26.5717C40.2503 26.8404 40.5487 27.281 40.7742 27.7962C41.0536 28.4348 41.2552 29.1188 41.4351 29.7907C42.1686 32.5278 42.2808 35.3771 42.2753 38.1962C42.2726 39.5589 42.2778 40.9291 42.1909 42.2897C42.1144 43.4803 41.9412 44.7204 41.4062 45.8013C40.3864 47.8621 38.2838 48.7103 36.1226 49.0326C35.0074 49.199 33.8687 49.2224 32.743 49.2238C32.0964 49.2243 31.4705 49.2711 30.8305 49.3684C30.2282 49.4603 29.6286 49.5841 29.0177 49.6025C28.4539 49.6193 27.9528 49.5307 27.482 49.2065C27.1759 48.9958 26.7188 49.1495 26.5411 49.4532C26.3417 49.7942 26.4811 50.1825 26.7878 50.394C27.9891 51.2208 29.4553 50.9763 30.8024 50.7574C32.0321 50.5574 33.2593 50.6226 34.4988 50.5574C36.8946 50.432 39.4601 49.976 41.2737 48.2763C43.2935 46.3835 43.5666 43.5122 43.6194 40.9025C43.681 37.8678 43.7134 34.813 43.2541 31.8045C43.0305 30.341 42.6859 28.8768 42.1298 27.5019C41.8683 26.8545 41.5465 26.22 40.9975 25.7673C40.4708 25.333 39.8363 25.0734 39.1677 24.9493C37.7502 24.6861 36.2453 24.7408 34.8091 24.7254C33.2463 24.7087 31.6789 24.7477 30.1269 24.9438C28.7746 25.1146 27.2578 25.2978 26.0592 26.0002C25.54 26.3044 25.0854 26.7356 24.8395 27.2915C24.5072 28.0429 24.6096 28.8388 24.7853 29.6169C25.136 31.1672 25.3312 32.7057 25.2611 34.299C25.2454 34.6571 25.2394 35.0319 25.1772 35.3856C25.1316 35.6453 25.0697 35.7476 24.8312 35.8488C24.1998 36.1178 23.6373 36.348 23.1511 36.8573C22.2352 37.8169 21.8306 39.2449 22.2514 40.5226C22.6571 41.7534 23.6684 42.7353 24.9349 43.0419C25.4341 43.1629 26.1698 43.1486 26.5287 43.5749C26.8491 43.955 26.8464 44.5584 26.8527 45.0265C26.8739 46.5964 26.7416 48.1721 26.4547 49.7155C26.3098 50.4969 26.1263 51.2697 25.9104 52.034C25.6692 52.8872 26.9957 53.2516 27.2364 52.3998Z" fill="white"/>
<path d="M26.9204 51.6233C25.2001 50.5015 22.9583 50.3513 20.9632 50.3252C18.64 50.2946 16.3243 50.5199 14.0044 50.5955C13.4332 50.6142 12.8614 50.6236 12.2901 50.6101C12.0283 50.6038 11.7662 50.5928 11.5049 50.5746C11.369 50.5653 11.2332 50.5537 11.0976 50.54C11.0497 50.5347 11.0019 50.5292 10.954 50.524C10.9188 50.5202 10.8833 50.5158 10.8481 50.5114C10.9147 50.5204 10.9064 50.5191 10.8234 50.5072C10.9246 50.8904 11.0258 51.2735 11.1267 51.6566C15.6408 47.7275 16.3292 41.3295 16.4513 35.7208C16.5751 30.0241 16.3471 23.535 20.3051 18.9233C21.1186 17.9753 22.0752 17.1724 23.1827 16.5894C24.4839 15.904 25.9503 15.5734 27.413 15.4989C30.2444 15.3542 33.1185 16.0058 35.7838 16.92C40.2272 18.4439 44.9891 21.3301 46.4918 26.0598C46.9552 27.5183 47.0298 29.0315 47.0037 30.5521C46.9784 32.0483 46.7666 33.6179 47.0474 35.0992C47.2707 36.2763 47.7858 37.4108 48.3499 38.4604C48.9401 39.5588 49.6409 40.6048 50.4448 41.5589C50.7669 41.9409 51.1104 42.3058 51.49 42.6315C51.4542 42.3534 51.4184 42.0759 51.3824 41.7981C51.3467 41.8556 51.3076 41.9101 51.2694 41.9656C51.3882 41.7926 51.2402 41.9975 51.2091 42.033C51.0928 42.1653 50.9671 42.2893 50.837 42.4079C50.7034 42.5303 50.5639 42.6458 50.4228 42.7594C50.271 42.8812 50.4875 42.711 50.3918 42.7836C50.3497 42.8157 50.3076 42.8471 50.2652 42.8787C50.1684 42.9502 50.0702 43.0201 49.9715 43.0891C49.1258 43.6793 48.2251 44.1909 47.3144 44.673C45.3796 45.697 43.3986 46.582 41.3958 47.3661C40.5858 47.6835 39.7682 47.9948 38.9323 48.2388C38.0847 48.4863 38.4455 49.8136 39.2981 49.5647C41.0957 49.0397 42.8416 48.2833 44.5507 47.5265C46.6016 46.6178 48.6676 45.6392 50.5257 44.373C51.2804 43.8587 52.0785 43.2803 52.57 42.492C52.7204 42.2508 52.6869 41.8512 52.4625 41.659C51.628 40.9436 50.9509 40.0531 50.3521 39.1369C49.678 38.1053 49.073 37.0021 48.6725 35.8333C48.5108 35.3619 48.3582 34.7915 48.3246 34.3924C48.2586 33.6074 48.3128 32.8027 48.3378 32.0164C48.3931 30.2771 48.4533 28.5274 48.1068 26.8109C47.0567 21.6068 42.467 18.1642 37.8275 16.2307C35.2263 15.1468 32.4224 14.4067 29.6118 14.1683C26.6214 13.9147 23.5265 14.4414 21.0966 16.2957C18.9294 17.9494 17.4709 20.3147 16.5484 22.8518C15.4717 25.8136 15.2299 28.9922 15.1447 32.1187C15.0564 35.3498 15.1601 38.6196 14.5954 41.8155C14.1293 44.4533 13.2527 47.1477 11.5404 49.2539C11.1207 49.7704 10.6564 50.2473 10.1545 50.6841C9.79147 51.0001 9.95209 51.7597 10.4579 51.8334C12.5278 52.1346 14.6414 51.9531 16.7195 51.837C18.9115 51.7149 21.2352 51.5474 23.3739 51.8598C24.4234 52.013 25.3794 52.2586 26.2265 52.8109C26.9699 53.2958 27.6597 52.1054 26.9204 51.6233Z" fill="white"/>
<path d="M65.5562 27.2184C66.575 24.9082 67.2072 22.472 67.5178 19.9684C67.6687 18.7511 67.7367 17.5228 67.7128 16.2962C67.6905 15.141 67.3915 13.8415 67.762 12.7205C67.889 12.3349 68.1275 12.0409 68.4903 11.8594C68.6176 11.7958 68.8154 11.7392 68.9146 11.7318C69.0973 11.718 69.2029 11.7235 69.3343 11.8231C69.6861 12.0898 69.7719 12.8137 69.8646 13.2447C70.0029 13.8916 70.0967 14.5453 70.1578 15.2037C70.2818 16.5385 70.2928 17.8803 70.3055 19.2197C70.3176 20.5421 70.336 21.8853 70.083 23.1892C69.8847 24.2107 69.5645 25.236 69.1586 26.194C68.9562 26.6711 68.7207 27.1387 68.4394 27.5743C68.2202 27.914 67.9094 28.2812 67.633 28.4635C66.8978 28.9492 67.5857 30.1406 68.3272 29.6511C69.1743 29.0914 69.7342 28.1954 70.1625 27.2941C70.6102 26.351 70.9556 25.3576 71.2232 24.3491C71.5835 22.9937 71.6792 21.596 71.6847 20.1983C71.6908 18.7316 71.6823 17.2577 71.5808 15.794C71.5296 15.0558 71.4474 14.3184 71.3253 13.5882C71.21 12.8998 71.0833 12.1776 70.7942 11.5376C70.2507 10.3343 68.8968 10.097 67.7964 10.6721C66.6327 11.2802 66.2446 12.5722 66.2281 13.8055C66.2191 14.4788 66.2974 15.1507 66.3238 15.8228C66.3497 16.4788 66.3481 17.1358 66.3216 17.7918C66.2015 20.7734 65.5752 23.7883 64.3689 26.5245C64.2193 26.8639 64.2696 27.2627 64.6156 27.4651C64.9077 27.6362 65.4058 27.56 65.5562 27.2184Z" fill="white"/>
<path d="M26.5121 31.5477C27.8953 31.2356 29.3238 31.0018 30.7443 30.9727C31.2597 30.9619 31.8469 30.976 32.2922 31.2711C32.7243 31.5576 32.8736 32.0582 32.9569 32.5456C33.0656 33.1803 33.0595 33.8426 33.0953 34.484C33.1385 35.2574 33.1816 36.0307 33.2245 36.8039C33.3024 38.2038 33.3307 39.6177 33.499 41.0104C33.6473 42.2376 33.9184 43.5041 34.6462 44.5314C35.0425 45.0908 35.6228 45.7941 36.397 45.6365C37.1426 45.4846 37.347 44.7346 37.507 44.0916C38.21 41.264 37.9064 38.3374 37.877 35.4595C37.8687 34.6484 37.8827 33.8365 37.9487 33.028C38.0059 32.3308 38.073 31.575 38.449 30.9669C39.0145 30.053 40.2213 29.7578 41.1817 30.1349C41.5274 30.2708 41.9364 29.9858 42.0274 29.6547C42.1347 29.2647 41.8943 28.9451 41.5472 28.809C40.4856 28.392 39.1913 28.5813 38.2625 29.2345C37.084 30.0637 36.7394 31.3384 36.6025 32.71C36.3109 35.6262 36.7513 38.5558 36.5315 41.4744C36.479 42.1708 36.383 42.8606 36.2251 43.541C36.1819 43.7266 36.1355 43.9117 36.0829 44.0949C36.0766 44.1169 35.9721 44.3702 35.9801 44.3864C35.9831 44.3925 36.2798 44.0608 36.2532 44.291C36.2521 44.3023 36.0629 44.1191 36.1267 44.1818C36.0188 44.0765 35.922 43.9588 35.8338 43.8375C35.1533 42.9038 34.9341 41.7046 34.828 40.5786C34.6929 39.1435 34.6495 37.6969 34.5692 36.2579C34.5249 35.462 34.4806 34.6658 34.4363 33.8698C34.4 33.2221 34.3808 32.5623 34.2317 31.9281C34.0626 31.2078 33.6844 30.5642 33.07 30.1393C32.4908 29.7386 31.752 29.6146 31.0617 29.5975C29.4294 29.5571 27.733 29.8637 26.1466 30.2218C25.2836 30.4163 25.6488 31.7425 26.5121 31.5477Z" fill="white"/>
<path d="M40.1747 34.4294C41.0594 34.4294 41.0608 33.0543 40.1747 33.0543C39.2899 33.0543 39.2882 34.4294 40.1747 34.4294Z" fill="white"/>
<path d="M29.8763 36.3259C30.761 36.3259 30.7624 34.9508 29.8763 34.9508C28.9915 34.9508 28.9898 36.3259 29.8763 36.3259Z" fill="white"/>
<path d="M33.2408 47.7205C33.6886 47.6666 34.1405 47.6512 34.5907 47.6784C34.6947 47.6847 34.7983 47.693 34.902 47.7037C34.921 47.7056 35.1278 47.7274 35.017 47.7155C34.907 47.704 35.1121 47.7301 35.1317 47.7332C35.3545 47.7686 35.575 47.8151 35.7937 47.8704C36.1419 47.9581 36.5558 47.7576 36.6394 47.3902C36.7208 47.0332 36.5324 46.6383 36.1592 46.5445C35.2092 46.3049 34.2144 46.2285 33.2408 46.3453C33.0522 46.3682 32.8943 46.407 32.7546 46.5467C32.6352 46.666 32.5456 46.8616 32.5533 47.0329C32.5684 47.3687 32.8583 47.7664 33.2408 47.7205Z" fill="white"/>
<path d="M122.812 66.715C124.045 68.9658 125.468 71.0728 127.227 72.9472C129.102 74.9455 131.142 76.7822 133.005 78.7929C135.074 81.0245 136.987 83.4338 138.376 86.1538C139.052 87.4781 139.584 88.8711 139.928 90.3192C140.302 91.8926 140.501 93.5885 140.11 95.1779C139.464 97.8132 137.243 99.5792 134.918 100.739C133.612 101.391 132.226 101.861 130.823 102.259C129.212 102.717 127.567 103.065 125.907 103.295C122.573 103.755 119.142 103.748 115.811 103.261C114.132 103.015 112.47 102.652 110.842 102.173C110.252 101.999 109.589 101.818 109.132 101.382C108.61 100.884 108.589 100.14 108.573 99.4634C108.551 98.5566 108.538 97.6501 108.52 96.7436C108.511 96.2857 108.501 95.828 108.493 95.3701C108.489 95.0621 108.449 94.6779 108.633 94.4081C108.89 94.0326 109.532 94.0068 109.988 94.0049C110.772 94.0013 111.554 94.0714 112.338 94.0651C115.723 94.0387 119.116 93.4091 122.279 92.2023C123.073 91.8992 123.855 91.562 124.62 91.1938C124.955 91.0326 125.044 90.5552 124.867 90.2529C124.667 89.911 124.262 89.8447 123.927 90.0065C120.777 91.5213 117.323 92.4232 113.834 92.6382C112.962 92.6919 112.088 92.7045 111.215 92.6759C110.476 92.6514 109.746 92.5827 109.012 92.7185C108.28 92.8541 107.616 93.276 107.317 93.9757C106.959 94.8104 107.128 95.8597 107.145 96.7436C107.163 97.687 107.173 98.6314 107.201 99.5748C107.224 100.383 107.313 101.237 107.79 101.917C108.713 103.236 110.594 103.566 112.054 103.924C115.529 104.778 119.138 105.127 122.711 104.959C126.234 104.794 129.776 104.157 133.105 102.98C135.808 102.025 138.506 100.592 140.207 98.2093C142.194 95.4268 141.892 91.8214 140.912 88.7149C139.933 85.6151 138.176 82.8408 136.15 80.3237C134.202 77.904 131.971 75.7461 129.765 73.5671C128.03 71.8536 126.457 70.0992 125.168 68.0321C124.757 67.3739 124.372 66.7009 123.999 66.0211C123.574 65.2444 122.386 65.9377 122.812 66.715Z" fill="white"/>
<path d="M107.322 94.0868C107.228 94.0846 107.257 94.0998 107.195 94.0577C107.096 93.9903 107.028 93.8836 106.968 93.7829C106.786 93.4782 106.702 93.1352 106.613 92.7947C106.387 91.9276 106.223 91.0433 106.138 90.1511C106.051 89.2411 106.033 88.3247 106.085 87.4116C106.122 86.7573 106.158 86.1178 106.038 85.4682C105.92 84.8279 105.582 84.2025 104.995 83.8821C104.262 83.4828 103.41 83.6604 102.778 84.161C101.408 85.2465 101.717 87.2672 101.754 88.8049C101.765 89.2518 101.775 89.6987 101.786 90.1459C101.795 90.4897 101.863 90.9325 101.721 91.2598C101.479 91.8156 100.574 91.7381 100.088 91.7447C99.288 91.7562 98.4011 91.8434 97.8304 92.4735C97.3483 93.0054 97.1255 93.8371 97.5069 94.4875C97.6032 94.6517 97.7319 94.7821 97.881 94.8973C97.9503 94.951 98.0251 95.0192 98.1049 95.0563C98.3001 95.1479 98.134 95.1207 98.1607 95.0624C98.1835 95.0129 98.126 94.8091 98.1552 94.8454C98.1714 94.8649 98.1489 94.863 98.1167 94.8987C98.0721 94.948 98.0237 94.9942 97.9759 95.0401C97.5628 95.435 97.1145 95.8434 97.1406 96.4683C97.156 96.8303 97.3428 97.1298 97.5746 97.3949C97.6582 97.4906 97.7545 97.5753 97.8378 97.6713C97.9676 97.8215 97.8738 97.704 97.8642 97.7005C97.906 97.7728 97.9099 97.778 97.8769 97.7148C97.8466 97.6251 97.8606 97.5492 97.9189 97.487C97.8562 97.4755 97.5768 97.866 97.549 97.904C97.4382 98.0539 97.3582 98.2062 97.2894 98.3798C97.1522 98.7241 97.1087 99.0965 97.1527 99.4637C97.2594 100.352 97.8604 101.026 98.6984 101.312C99.4687 101.576 100.309 101.472 101.096 101.362C103.225 101.064 105.353 100.752 107.481 100.447C107.849 100.394 108.051 99.9266 107.961 99.6012C107.852 99.206 107.485 99.0679 107.115 99.121C105.349 99.374 103.583 99.6273 101.817 99.8801C101.097 99.9835 100.361 100.136 99.6296 100.097C99.1844 100.073 98.694 99.9255 98.5435 99.4598C98.4784 99.2571 98.4924 99.0261 98.5831 98.8289C98.7273 98.5159 99.057 98.3473 99.1734 98.0008C99.4069 97.3058 98.944 96.904 98.5468 96.4224C98.5034 96.3696 98.5171 96.3569 98.5012 96.3539C98.4451 96.3435 98.5336 96.3176 98.5133 96.4067C98.4764 96.5679 98.5251 96.4251 98.5215 96.4136C98.5471 96.4953 98.5188 96.432 98.5202 96.4309C98.6181 96.3498 98.8513 96.1102 98.9971 95.9656C99.4135 95.5514 99.6709 94.99 99.37 94.4248C99.2281 94.1581 98.9511 93.9545 98.7135 93.8198C98.7319 93.83 98.6549 93.7095 98.6879 93.7788C98.7141 93.833 98.6841 93.7582 98.6866 93.7271C98.6899 93.6803 98.7363 93.5343 98.8048 93.4444C99.1266 93.0225 99.9517 93.1267 100.434 93.1162C101.163 93.1006 101.936 92.9743 102.5 92.4732C103.096 91.9432 103.183 91.166 103.168 90.4141C103.15 89.5202 103.125 88.6261 103.103 87.7323C103.087 87.0582 103.003 86.2842 103.3 85.6549C103.487 85.2597 103.988 84.8648 104.37 85.1087C104.475 85.1767 104.561 85.3167 104.605 85.428C104.704 85.6786 104.733 85.9256 104.746 86.1778C104.787 86.9792 104.674 87.784 104.681 88.5868C104.69 89.5626 104.781 90.5365 104.937 91.4996C105.16 92.8684 105.482 95.4224 107.322 95.462C108.208 95.4807 108.207 94.1055 107.322 94.0868Z" fill="white"/>
<path d="M97.021 98.0341C95.2171 98.7852 93.3491 99.3751 91.4384 99.7871C90.503 99.9887 89.5578 100.151 88.607 100.262C88.176 100.312 87.7415 100.366 87.3075 100.378C86.9947 100.387 86.6199 100.389 86.3784 100.16C86.1482 99.942 86.0907 99.572 86.0352 99.2745C85.9452 98.7921 85.8855 98.3025 85.8176 97.8165C85.6829 96.8517 85.5643 95.885 85.4579 94.9166C85.2412 92.9438 85.0794 90.9647 84.973 88.9828C84.5478 81.0749 84.9906 73.1144 86.3162 65.306C87.0602 60.9245 88.077 56.5911 89.3586 52.3355C89.6141 51.4862 88.2874 51.1235 88.0324 51.97C85.6636 59.8376 84.2057 67.9765 83.6716 76.1749C83.405 80.2657 83.3709 84.3714 83.5714 88.4658C83.6727 90.5343 83.8335 92.6 84.0547 94.6592C84.1625 95.6644 84.286 96.6674 84.421 97.6691C84.5467 98.5976 84.5811 99.6325 84.9724 100.497C85.4348 101.517 86.4747 101.809 87.5151 101.743C88.6163 101.674 89.72 101.509 90.8047 101.312C93.0619 100.9 95.269 100.242 97.3865 99.3603C97.7292 99.2175 97.9742 98.9048 97.8667 98.5143C97.7781 98.1908 97.3661 97.8908 97.021 98.0341Z" fill="white"/>
<path d="M85.0391 64.4649C83.7085 64.3978 82.6342 63.4069 81.7519 62.504C80.7577 61.4861 79.841 60.3926 79.0192 59.2306C77.3811 56.9132 76.0901 54.3554 75.2274 51.651C73.292 45.5841 73.4576 39.1256 73.6435 32.8362C73.666 32.0666 73.6501 31.2531 73.9697 30.5355C74.2172 29.9789 74.6344 29.5113 75.113 29.1409C76.133 28.3507 77.402 27.9203 78.6166 27.5344C78.358 27.4291 78.0992 27.324 77.8402 27.2184C80.3256 31.8529 82.8199 36.5029 85.8457 40.8137C88.5254 44.6317 91.6783 48.4859 96.1327 50.2563C100.152 51.854 104.602 51.2544 108.816 51.5322C110.762 51.6603 112.756 51.9907 114.476 52.9599C116.187 53.9239 117.469 55.4723 118.469 57.1354C120.721 60.8802 121.849 65.1811 124.125 68.9191C124.416 69.3965 124.724 69.8624 125.048 70.3173C125.263 70.6193 125.648 70.7634 125.989 70.564C126.288 70.3894 126.452 69.9273 126.236 69.6234C123.644 65.9872 122.415 61.6783 120.383 57.7482C119.456 55.9533 118.305 54.2181 116.759 52.8947C115.173 51.5366 113.227 50.7684 111.182 50.4252C107.016 49.7263 102.72 50.4728 98.5824 49.5621C94.1041 48.5767 90.8142 45.2186 88.1571 41.671C84.9995 37.455 82.4285 32.8425 79.9353 28.2143C79.6323 27.6513 79.33 27.088 79.0277 26.5245C78.8894 26.2662 78.5319 26.1194 78.2511 26.2085C75.8536 26.9698 72.9581 28.1375 72.4229 30.917C72.2612 31.7569 72.2741 32.6238 72.2496 33.4756C72.2257 34.3087 72.204 35.142 72.1883 35.9754C72.1569 37.6651 72.1517 39.3558 72.21 41.045C72.3258 44.3877 72.6905 47.7497 73.5915 50.9788C74.4202 53.9489 75.7205 56.7932 77.4389 59.3541C78.4037 60.7916 79.495 62.1497 80.6991 63.3937C81.8798 64.6132 83.2717 65.751 85.0391 65.8401C85.9236 65.8847 85.9211 64.5095 85.0391 64.4649Z" fill="white"/>
<path d="M115.776 52.0342C115.342 50.4998 115.045 48.9305 114.915 47.3408C114.851 46.5554 114.821 45.7655 114.834 44.9775C114.842 44.5045 114.851 43.9112 115.19 43.5408C115.562 43.1356 116.305 43.1549 116.802 43.0292C117.44 42.8678 118.029 42.5267 118.494 42.0614C119.418 41.1356 119.822 39.7687 119.473 38.4994C119.301 37.8721 118.956 37.2846 118.5 36.8215C118.286 36.6031 118.036 36.4078 117.774 36.25C117.467 36.0651 117.126 35.9791 116.804 35.83C116.601 35.7359 116.553 35.6174 116.512 35.3985C116.442 35.0206 116.437 34.6171 116.422 34.2334C116.39 33.4458 116.415 32.6559 116.495 31.8715C116.573 31.1083 116.732 30.364 116.901 29.6168C117.076 28.839 117.179 28.0428 116.846 27.2917C116.327 26.1181 115.015 25.6203 113.851 25.3453C110.756 24.6137 107.552 24.6858 104.396 24.7845C103.086 24.8255 101.693 24.9121 100.649 25.7991C100.108 26.2592 99.7931 26.9058 99.5352 27.5532C99.2621 28.2397 99.044 28.9507 98.8616 29.6666C98.1122 32.611 98.0176 35.6779 98.0379 38.701C98.0558 41.3862 97.8828 44.4134 99.2689 46.826C100.535 49.0298 102.929 50.04 105.346 50.3805C106.572 50.5529 107.806 50.6 109.042 50.5989C109.686 50.5983 110.304 50.6632 110.94 50.7666C111.614 50.8761 112.301 51.0029 112.987 50.9776C113.667 50.9525 114.333 50.7831 114.898 50.394C115.204 50.1836 115.342 49.7905 115.145 49.4531C114.968 49.1505 114.511 48.9949 114.204 49.2067C113.199 49.8984 111.912 49.5268 110.799 49.3601C109.582 49.1778 108.362 49.2463 107.136 49.18C105.058 49.0669 102.737 48.6912 101.215 47.1376C99.4785 45.3656 99.4664 42.656 99.432 40.3375C99.3902 37.4939 99.344 34.6146 99.8174 31.8003C100.045 30.4438 100.362 29.0395 100.921 27.7766C101.153 27.2512 101.463 26.8115 101.984 26.5485C102.457 26.3104 103.013 26.2361 103.535 26.1984C104.968 26.095 106.421 26.0884 107.857 26.0986C109.333 26.109 110.818 26.1803 112.275 26.427C112.93 26.5378 113.592 26.6654 114.223 26.8742C114.661 27.0186 115.134 27.2268 115.434 27.5917C115.795 28.0301 115.715 28.608 115.602 29.1283C115.442 29.8676 115.28 30.5986 115.181 31.3498C115.082 32.1102 115.03 32.8753 115.034 33.6424C115.037 34.3608 115.046 35.1237 115.201 35.8283C115.373 36.6097 115.937 36.9705 116.641 37.231C117.112 37.4054 117.515 37.7027 117.8 38.121C118.378 38.9695 118.362 40.0616 117.719 40.8721C117.403 41.2695 116.977 41.5586 116.487 41.6906C115.874 41.8556 115.233 41.8842 114.672 42.2146C113.456 42.9302 113.441 44.4431 113.46 45.6885C113.483 47.2047 113.645 48.722 113.93 50.2113C114.071 50.9484 114.246 51.6778 114.45 52.4C114.69 53.2499 116.017 52.8888 115.776 52.0342Z" fill="white"/>
<path d="M115.46 52.8108C116.208 52.3232 116.982 52.0949 117.899 51.9277C118.889 51.7473 119.963 51.7019 121.006 51.6978C123.294 51.6884 125.574 51.9104 127.86 51.9761C128.987 52.0086 130.111 51.9959 131.228 51.8334C131.734 51.7597 131.895 51 131.532 50.6843C126.996 46.7368 126.682 40.2243 126.59 34.6531C126.535 31.3409 126.525 27.9662 125.712 24.733C125.055 22.1177 123.875 19.561 122.019 17.5778C119.998 15.418 117.265 14.289 114.332 14.127C111.386 13.9642 108.36 14.6311 105.583 15.578C100.821 17.2021 95.9866 20.1785 94.0883 25.0691C93.5416 26.478 93.3367 27.9852 93.3064 29.4902C93.2891 30.3549 93.3232 31.2193 93.3501 32.0832C93.3746 32.8585 93.4299 33.6547 93.3584 34.4286C93.3221 34.8208 93.1612 35.4083 92.9986 35.8758C92.8042 36.4361 92.5594 36.9754 92.2877 37.5024C91.7255 38.5918 91.0597 39.6479 90.2687 40.5866C89.9466 40.9686 89.6031 41.3335 89.2233 41.6589C89 41.8506 88.9642 42.2488 89.116 42.492C89.5506 43.1886 90.2263 43.7095 90.8845 44.1807C91.7231 44.7808 92.6221 45.2965 93.5308 45.7822C95.574 46.8746 97.7022 47.8188 99.8574 48.6659C100.69 48.9931 101.529 49.3141 102.388 49.5647C103.239 49.8133 103.603 48.4868 102.753 48.2387C101.057 47.7434 99.4027 47.036 97.8293 46.3388C95.8394 45.4574 93.8444 44.5071 92.0272 43.3017C91.8039 43.1537 91.585 42.9994 91.3694 42.8407C91.3358 42.8157 91.3025 42.7901 91.2693 42.7648C91.3782 42.8484 91.2387 42.7401 91.2164 42.7219C91.1268 42.6487 91.0377 42.5756 90.951 42.4994C90.8078 42.374 90.6691 42.2431 90.5404 42.1031C90.478 42.0357 90.4186 41.9661 90.3614 41.8946C90.4923 42.0582 90.3322 41.844 90.3033 41.7981C90.2676 42.0759 90.2316 42.3536 90.1961 42.6314C91.0539 41.8957 91.7574 40.9694 92.3856 40.0357C93.1034 38.9683 93.7159 37.8275 94.1827 36.6275C94.3798 36.1198 94.5476 35.597 94.6458 35.0604C94.766 34.4041 94.7616 33.7471 94.7509 33.0821C94.7234 31.3607 94.5715 29.6238 94.7844 27.9082C95.4151 22.8281 99.7809 19.44 104.204 17.5651C106.697 16.5085 109.432 15.7587 112.134 15.5384C114.923 15.3107 117.814 15.7675 120.029 17.5929C124.627 21.3812 125.092 27.8092 125.193 33.3186C125.298 39.1162 125.321 45.4827 129.173 50.2264C129.593 50.7429 130.057 51.2195 130.559 51.6565C130.66 51.2734 130.761 50.8903 130.863 50.5075C130.643 50.5394 130.936 50.4995 130.803 50.5157C130.755 50.5215 130.708 50.527 130.66 50.5322C130.551 50.544 130.441 50.5545 130.331 50.5633C130.087 50.5831 129.842 50.596 129.597 50.6043C129.092 50.6213 128.586 50.6186 128.082 50.6067C126.946 50.5803 125.811 50.5083 124.677 50.4459C122.384 50.3199 120.058 50.1926 117.78 50.5594C116.728 50.7289 115.665 51.0369 114.766 51.6233C114.027 52.1048 114.715 53.296 115.46 52.8108Z" fill="white"/>
<path d="M77.3171 26.5247C76.2488 24.1022 75.6361 21.4534 75.426 18.8183C75.3195 17.4847 75.3319 16.1555 75.4202 14.8216C75.5032 13.5636 75.506 12.0823 74.5272 11.1384C73.7656 10.4038 72.4763 10.0383 71.5579 10.7063C70.9694 11.1343 70.7477 11.8172 70.5832 12.4954C70.4036 13.2358 70.2865 13.9899 70.2001 14.7465C70.0354 16.1877 70.0208 17.6407 70.0068 19.0895C69.9925 20.5618 69.9922 22.0387 70.265 23.4911C70.4845 24.6605 70.8734 25.8113 71.3456 26.9015C71.7961 27.9408 72.391 29.0118 73.3586 29.6512C74.0995 30.1402 74.789 28.9499 74.053 28.4639C73.9196 28.3759 73.8511 28.316 73.7056 28.1653C73.5615 28.0159 73.457 27.8855 73.3443 27.7214C73.0736 27.3281 72.8495 26.9037 72.6501 26.4705C72.2791 25.6627 72.0051 24.8058 71.7788 23.9468C71.4606 22.7392 71.3838 21.5084 71.3764 20.2636C71.3687 18.9069 71.3794 17.5438 71.4556 16.1888C71.528 14.9 71.6575 13.5694 72.0516 12.3337C72.1061 12.164 72.2026 11.9382 72.3176 11.8449C72.4551 11.7333 72.5621 11.7242 72.7301 11.7297C73.0307 11.7396 73.4111 11.9332 73.6462 12.2055C74.3352 13.0017 74.0665 14.395 74.0101 15.3535C73.9372 16.5884 73.9614 17.8285 74.0712 19.0604C74.3223 21.8742 74.9889 24.6322 76.1298 27.2186C76.2797 27.5585 76.7758 27.6377 77.0706 27.4653C77.4208 27.2604 77.4675 26.8657 77.3171 26.5247Z" fill="white"/>
<path d="M115.539 30.2217C114.086 29.8938 112.59 29.6617 111.099 29.6026C109.823 29.5514 108.438 29.841 107.78 31.0583C107.148 32.2264 107.257 33.7454 107.185 35.0298C107.099 36.5743 107.019 38.1192 106.926 39.6632C106.857 40.8224 106.764 42.0535 106.268 43.122C106.152 43.3712 106.013 43.6143 105.852 43.8373C105.785 43.9311 105.711 44.0194 105.632 44.1047C105.623 44.114 105.483 44.2353 105.478 44.2606C105.402 44.2972 105.42 44.3129 105.534 44.3074C105.607 44.3005 105.664 44.3269 105.706 44.3863C105.705 44.3871 105.598 44.0777 105.603 44.0948C105.557 43.9319 105.514 43.7675 105.475 43.6027C105.388 43.2336 105.316 42.8604 105.261 42.485C104.839 39.609 105.289 36.6832 105.16 33.7932C105.094 32.3207 105.001 30.588 103.815 29.5404C102.832 28.673 101.381 28.3212 100.139 28.8088C99.7932 28.9444 99.5526 29.2695 99.6585 29.6546C99.749 29.984 100.157 30.2715 100.504 30.135C101.385 29.7893 102.387 30.0005 103.039 30.7049C103.432 31.1304 103.575 31.7299 103.659 32.2882C103.761 32.9742 103.789 33.6763 103.804 34.3689C103.868 37.2828 103.493 40.2047 103.975 43.1002C104.082 43.7433 104.182 44.5103 104.519 45.0802C104.961 45.8308 105.862 45.762 106.45 45.2331C107.365 44.4097 107.831 43.1198 108.05 41.941C108.292 40.6318 108.323 39.2903 108.397 37.9638C108.483 36.4231 108.564 34.8818 108.654 33.3411C108.688 32.7674 108.718 32.1208 109.042 31.6246C109.353 31.1491 109.929 31.0077 110.466 30.9788C112.024 30.8952 113.661 31.2063 115.174 31.5476C116.036 31.742 116.404 30.4167 115.539 30.2217Z" fill="white"/>
<path d="M101.511 34.4294C102.396 34.4294 102.398 33.0543 101.511 33.0543C100.626 33.0543 100.625 34.4294 101.511 34.4294Z" fill="white"/>
<path d="M111.81 36.3259C112.694 36.3259 112.696 34.9508 111.81 34.9508C110.925 34.9508 110.923 36.3259 111.81 36.3259Z" fill="white"/>
<path d="M108.445 46.3451C107.472 46.2282 106.477 46.3047 105.526 46.5442C105.178 46.632 104.934 47.0418 105.046 47.3899C105.163 47.7508 105.518 47.9642 105.892 47.8701C106.111 47.8149 106.331 47.7687 106.554 47.7329C106.605 47.7247 106.657 47.7153 106.709 47.7098C106.519 47.7296 106.718 47.7104 106.758 47.7062C106.87 47.6941 106.983 47.6848 107.095 47.6782C107.545 47.6512 107.997 47.6663 108.445 47.7203C108.608 47.7398 108.821 47.6292 108.931 47.5189C109.05 47.3996 109.14 47.204 109.133 47.0327C109.125 46.855 109.066 46.6705 108.931 46.5464C108.788 46.415 108.637 46.3679 108.445 46.3451Z" fill="white"/>
<path d="M79.9728 8.82672C82.4599 6.27746 84.947 3.7282 87.4341 1.17867C88.0524 0.545002 87.081 -0.428331 86.4616 0.206439L79.0003 7.85421C78.382 8.48816 79.3534 9.46149 79.9728 8.82672Z" fill="white"/>
<path d="M82.8967 13.8049H90.6041C91.4889 13.8049 91.4905 12.4298 90.6041 12.4298H82.8967C82.0119 12.4298 82.0102 13.8049 82.8967 13.8049Z" fill="white"/>
<path d="M81.8981 20.0464C83.6475 21.5355 85.3973 23.0245 87.1467 24.5132C87.4292 24.7539 87.8415 24.7907 88.119 24.5132C88.3657 24.2668 88.4031 23.7827 88.119 23.541C86.3695 22.052 84.6198 20.5629 82.8706 19.0739C82.5878 18.8336 82.1756 18.7967 81.8981 19.0739C81.6516 19.3206 81.6142 19.8047 81.8981 20.0464Z" fill="white"/>
<path d="M57.0311 6.8865C54.3859 5.90602 51.8823 4.56992 49.583 2.93624C49.2802 2.72089 48.8179 2.88233 48.6424 3.18294C48.4405 3.52783 48.5855 3.90792 48.8891 4.12354C51.2879 5.82818 53.9071 7.19013 56.6653 8.21242C57.0138 8.34169 57.4189 8.06831 57.5113 7.73222C57.6169 7.348 57.3807 7.01604 57.0311 6.8865Z" fill="white"/>
<path d="M56.5737 14.4467C54.9653 15.4082 53.4073 16.4511 51.9062 17.5727C51.6091 17.7943 51.4571 18.167 51.6595 18.5133C51.8308 18.8062 52.3008 18.9836 52.6004 18.76C54.1015 17.6384 55.6595 16.5955 57.2676 15.634C57.5864 15.4437 57.7033 15.016 57.5143 14.6934C57.3279 14.3743 56.8936 14.2555 56.5737 14.4467Z" fill="white"/>
<path d="M60.6357 23.6877C58.9629 25.3145 57.675 27.2804 56.8334 29.4548C56.6992 29.8011 56.9811 30.2092 57.3136 30.3005C57.7022 30.4073 58.0248 30.168 58.1596 29.8203C58.9137 27.8717 60.1131 26.114 61.6082 24.6602C62.2438 24.0419 61.271 23.07 60.6357 23.6877Z" fill="white"/>
</svg>
