<svg width="540" height="540" viewBox="0 0 540 540" fill="none" xmlns="http://www.w3.org/2000/svg">
<path fill-rule="evenodd" clip-rule="evenodd" d="M181.276 0.139991C148.646 2.88577 123.044 10.6113 97.1148 25.5359C81.6256 34.4514 70.1848 43.3227 56.5876 56.9617C40.878 72.7203 30.4213 87.0405 20.8066 105.965C2.09064 142.803 -4.25521 185.274 2.81225 226.397C13.2856 287.339 53.6529 340.577 109.822 367.527C130.911 377.645 151.9 383.417 176.058 385.739C187.229 386.814 207.201 386.445 218.161 384.961C248.206 380.896 276.433 370.228 301.211 353.572C304.387 351.437 305.145 351.121 305.688 351.706C306.048 352.093 310.607 357.203 315.822 363.062C321.036 368.921 330.931 380.029 337.813 387.745C347.586 398.705 365.421 416.899 419.314 470.888L488.305 540H490.644H492.983L516.492 516.486L540 492.971V490.635V488.298L495.862 444.146C453.776 402.048 451.678 400.035 450.765 400.862C449.981 401.571 449.622 401.614 448.796 401.098C448.241 400.751 447.786 400.688 447.786 400.957C447.786 401.597 449.518 402.136 450.441 401.783C451.03 401.557 451.163 402.548 451.163 407.178C451.163 410.614 450.969 412.73 450.671 412.545C448.646 411.29 455.877 418.771 478.575 441.414C498.124 460.914 504.986 467.457 505.63 467.21C506.103 467.028 506.491 467.119 506.491 467.411C506.491 467.704 506.26 468.021 505.978 468.116C505.695 468.212 510.147 472.966 515.872 478.682C521.596 484.398 526.507 489.477 526.786 489.969C527.207 490.713 524.255 493.903 509.112 509.066C499.113 519.077 490.755 527.269 490.539 527.269C490.322 527.269 461.774 498.916 427.099 464.262C373.99 411.186 361.709 398.635 349.179 384.627C340.998 375.482 329.738 362.895 324.158 356.658C318.578 350.42 313.946 345.137 313.866 344.917C313.785 344.697 316.946 341.699 320.891 338.255C328.581 331.54 332.634 327.44 339.929 319C342.468 316.061 344.73 313.724 344.954 313.807C345.179 313.889 353.607 321.322 363.684 330.325C373.761 339.328 385.644 349.941 390.09 353.91C394.535 357.879 406.121 368.993 415.836 378.609C430.496 393.119 437.355 399.681 435.193 397.129C434.981 396.879 435.098 396.303 435.453 395.847C436.023 395.115 435.992 395.102 435.188 395.733C434.685 396.128 434.279 396.209 434.279 395.914C434.279 395.621 434.995 395.132 435.87 394.827C437.811 394.15 439.8 395.04 438.865 396.168C438.461 396.655 438.485 396.839 438.955 396.839C439.466 396.839 439.469 396.999 438.964 397.607C438.487 398.182 438.075 398.241 437.331 397.843C435.481 396.853 435.204 397.943 436.917 399.474C438.808 401.161 439.398 401.088 439.19 399.19C439.111 398.469 439.259 397.878 439.52 397.878C439.781 397.878 439.994 398.828 439.994 399.987C439.994 401.531 439.82 401.995 439.344 401.717C438.987 401.508 439.142 401.846 439.688 402.469C440.946 403.904 441.191 403.631 441.614 400.315L441.959 397.618L441.901 400.996C441.869 402.854 442.028 404.67 442.253 405.032C442.857 406 443.645 405.28 443.429 403.958C443.326 403.329 443.419 402.581 443.637 402.295C444.173 401.592 444.532 397.382 444.029 397.693C443.81 397.828 443.63 398.847 443.63 399.957C443.63 401.066 443.397 402.118 443.111 402.295C442.793 402.492 442.591 401.689 442.591 400.231C442.591 398.59 442.348 397.752 441.812 397.547C440.78 397.15 440.811 394.957 441.855 394.556C443.129 394.067 444.15 394.183 444.15 394.816C444.15 395.132 443.806 395.259 443.387 395.099C442.968 394.938 442.486 395.03 442.318 395.303C442.149 395.576 442.48 395.8 443.054 395.8C443.628 395.8 444.349 395.39 444.656 394.89C445.167 394.059 445.202 394.07 445.072 395.02C444.971 395.759 444.403 396.151 443.111 396.375L441.293 396.691L443.144 396.765L444.996 396.839L444.817 400.087C444.719 401.873 444.577 404.078 444.503 404.987C444.428 405.896 444.552 406.525 444.778 406.385C445.004 406.245 445.189 406.566 445.189 407.097C445.189 408.274 446.141 409.311 446.941 409.004C447.339 408.852 447.492 406.82 447.419 402.68C447.323 397.236 447.393 396.688 448.069 397.588C448.563 398.246 448.825 398.35 448.825 397.887C448.825 397.496 439.299 387.606 427.655 375.908C407.171 355.329 398.411 347.143 367.522 319.712C359.521 312.608 352.55 306.396 352.031 305.909C351.124 305.058 351.241 304.784 354.926 299.097C371.249 273.905 381.023 247.578 385.034 217.998C386.006 210.827 386.188 207.047 386.205 193.659C386.225 177.132 385.92 173.141 383.595 159.539C376.11 115.746 352.085 74.14 317.648 45.3347C287.976 20.5146 254.515 5.97764 215.824 1.09769C209.945 0.356163 186.448 -0.294948 181.276 0.139991ZM212.447 11.2785C274.31 18.2973 326.656 54.1062 355.614 109.218C365.878 128.753 372.13 149.451 375.155 173.913C376.022 180.93 376.023 206.205 375.156 212.886C371.432 241.581 363.623 264.829 350.255 287.024C342.315 300.204 334.453 310.309 323.477 321.441C296.922 348.374 263.819 366.075 227.253 372.898C207.795 376.528 186.423 376.989 167.249 374.19C88.5829 362.708 26.1088 301.689 13.0061 223.539C11.1426 212.425 10.6533 206.103 10.6533 193.14C10.6533 176.551 12.0165 164.69 15.6105 150.01C31.851 83.6665 83.8917 31.6162 150.105 15.4907C160.576 12.9408 167.915 11.8293 182.835 10.5333C186.892 10.181 207.301 10.6944 212.447 11.2785ZM181.796 31.5486C132.863 35.3519 89.838 59.6851 60.9037 99.9198C46.8161 119.51 36.5697 145.15 32.997 169.756C32.0681 176.153 31.0114 190.958 31.4354 191.644C31.5964 191.904 31.9606 191.974 32.2453 191.798C32.53 191.622 33.5836 191.632 34.5867 191.82C37.3225 192.333 37.9734 194.379 38.0711 202.767L38.1501 209.586L36.8461 209.508C36.1292 209.466 34.9462 208.864 34.2174 208.17C33.0209 207.033 32.9705 206.834 33.7025 206.131C34.1488 205.702 34.8641 205.351 35.2927 205.351C35.7499 205.351 36.1151 204.814 36.177 204.052L36.2814 202.753L35.9079 203.991C35.5842 205.064 35.4476 205.125 34.8849 204.447C34.1451 203.555 34.5519 201.967 35.4657 202.181C35.7993 202.259 35.8964 202.225 35.6824 202.105C35.113 201.787 35.2065 200.01 35.8123 199.635C36.098 199.459 36.3318 199.065 36.3318 198.762C36.3318 197.797 34.8522 199.367 34.6153 200.583C34.4023 201.678 34.393 201.676 34.3244 200.51C34.2657 199.511 34.0542 199.367 33.0848 199.665L31.9159 200.024L33.0848 198.757C33.728 198.06 34.2537 197.308 34.2537 197.085C34.2537 196.863 34.6823 196.137 35.206 195.47L36.1588 194.259V195.908C36.1588 196.815 36.0611 197.264 35.9421 196.907C35.8232 196.55 35.4974 196.258 35.219 196.258C34.94 196.258 34.8662 196.507 35.0543 196.812C35.2429 197.117 34.9644 197.694 34.4356 198.095C33.9072 198.495 33.7082 198.823 33.994 198.823C34.2797 198.823 34.967 198.48 35.5218 198.06C36.3177 197.458 36.6289 197.434 36.9994 197.946C37.3194 198.39 37.3708 198.293 37.1599 197.644C36.99 197.121 36.8513 196.01 36.8513 195.176C36.8513 193.837 36.6684 193.659 35.2927 193.659C34.4355 193.659 33.7342 193.886 33.7342 194.163C33.7342 194.439 34.1431 194.519 34.6434 194.34C35.1769 194.148 35.3722 194.209 35.1161 194.486C34.5311 195.119 32.5295 195.088 32.0588 194.439C31.8515 194.153 31.7756 194.676 31.8899 195.601C32.0047 196.526 31.866 197.427 31.5819 197.602C31.2982 197.778 31.2239 198.307 31.4167 198.778C31.7933 199.697 32.3216 204.772 32.3341 207.586C32.3388 208.689 32.4946 209.06 32.77 208.626C33.0708 208.151 33.2012 208.135 33.2069 208.568C33.2111 208.909 32.9622 209.343 32.6541 209.534C32.0177 209.927 32.237 212.186 33.7867 221.2C44.9432 286.089 96.2457 338.893 160.755 351.886C172.867 354.325 179.173 354.923 192.965 354.94C209.83 354.961 221.395 353.467 236.485 349.319C274.819 338.782 309.22 313.101 330.493 279.14C355.307 239.527 361.791 190.757 348.205 145.905C342.373 126.651 332.11 107.437 318.755 90.7705C314.305 85.2171 300.345 71.4077 294.53 66.8073C270.282 47.6237 242.774 36.0602 212.53 32.3374C204.356 31.3314 189.497 30.95 181.796 31.5486ZM208.55 42.4881C263.337 47.9469 311.265 83.3922 332.858 134.42C339.707 150.606 343.33 166.531 344.475 185.478C344.807 190.978 345.128 195.543 345.189 195.623C345.249 195.702 345.891 195.542 346.615 195.266C349.045 194.342 349.487 195.343 349.203 201.12C349.055 204.112 348.772 205.956 348.523 205.552C348.186 205.006 348.024 205.049 347.754 205.752C347.408 206.655 346.481 206.507 346.481 205.55C346.481 205.264 346.714 205.174 346.999 205.35C347.841 205.871 348.676 203.42 348.145 201.985L347.675 200.713L347.05 201.882C346.706 202.524 346.388 203.966 346.344 205.085C346.276 206.781 346.091 207.101 345.229 207.015C344.293 206.92 344.134 207.422 343.543 212.348C339.361 247.214 321.608 281.243 295.049 305.301C257.149 339.633 205.43 352.502 155.82 339.945C98.5929 325.46 54.1397 277.553 44.1884 219.641C43.6231 216.355 43.007 212.515 42.8184 211.109C42.6002 209.48 42.3228 208.801 42.0537 209.237C41.5908 209.986 39.9684 209.604 39.9684 208.745C39.9684 208.45 40.4941 208.178 41.1373 208.139L42.3062 208.068L41.1035 207.838C39.9029 207.609 39.9008 207.595 40.0317 199.825C40.104 195.544 40.3533 191.924 40.5856 191.78C40.8173 191.637 41.011 191.826 41.0152 192.2C41.0214 192.724 41.116 192.734 41.4282 192.242C41.6511 191.892 41.8875 189.67 41.954 187.306C42.5592 165.774 48.9632 141.884 59.3353 122.469C88.6016 67.6834 147.041 36.3595 208.55 42.4881ZM33.2147 192.62C34.222 193.271 34.7732 193.271 34.7732 192.62C34.7732 192.334 34.2475 192.104 33.6043 192.108C32.6593 192.115 32.5845 192.213 33.2147 192.62ZM347.315 196.042C347.08 196.655 347.209 196.808 347.774 196.592C348.206 196.426 348.559 196.517 348.559 196.793C348.559 197.07 347.961 197.297 347.23 197.297C346.476 197.297 346.039 197.522 346.222 197.817C346.398 198.102 346.295 198.336 345.992 198.336C345.69 198.336 345.417 197.927 345.387 197.427C345.356 196.927 345.098 197.562 344.814 198.838C344.446 200.492 344.463 201.214 344.873 201.351C345.19 201.457 345.34 201.717 345.208 201.932C345.077 202.145 345.305 202.32 345.717 202.32C346.254 202.32 346.314 202.138 345.929 201.673C345.59 201.265 345.576 200.913 345.892 200.718C346.168 200.547 346.511 200.702 346.656 201.061C346.81 201.444 346.936 201.325 346.96 200.774C346.982 200.257 347.186 199.948 347.412 200.088C347.639 200.228 347.862 199.836 347.909 199.217C347.956 198.598 348.238 198.01 348.536 197.911C349.305 197.654 349.209 196.492 348.36 195.788C347.803 195.326 347.568 195.383 347.315 196.042ZM40.5892 197.557C40.5996 198.414 40.7159 198.702 40.8479 198.196C40.9799 197.691 40.971 196.989 40.8287 196.637C40.6863 196.286 40.5788 196.699 40.5892 197.557ZM350.5 202.15C350.59 205.716 350.452 206.997 349.98 206.998C349.518 206.999 349.379 205.971 349.482 203.317C349.612 199.955 349.955 197.293 350.258 197.3C350.324 197.302 350.433 199.484 350.5 202.15ZM33.7342 200.871C33.7342 201.121 33.3835 201.618 32.9549 201.974C32.3227 202.498 32.1757 202.478 32.1757 201.864C32.1757 201.448 32.3315 200.952 32.5222 200.761C33.0152 200.268 33.7342 200.333 33.7342 200.871ZM41.0895 201.454C41.0895 202.169 41.2074 202.461 41.3513 202.104C41.4957 201.747 41.4957 201.162 41.3513 200.804C41.2074 200.447 41.0895 200.74 41.0895 201.454ZM344.963 203.976C344.646 204.568 344.602 205.153 344.862 205.314C345.117 205.471 345.458 205.086 345.623 204.459C346.021 202.934 345.662 202.671 344.963 203.976ZM41.609 205.611C41.609 206.326 41.7269 206.618 41.8708 206.261C42.0153 205.904 42.0153 205.319 41.8708 204.962C41.7269 204.605 41.609 204.897 41.609 205.611ZM40.57 206.131C40.57 206.845 40.6879 207.138 40.8318 206.78C40.9762 206.423 40.9762 205.839 40.8318 205.481C40.6879 205.124 40.57 205.416 40.57 206.131ZM34.2615 206.295C34.2381 207.561 35.4481 208.725 36.7396 208.677L38.1501 208.626L36.8513 208.209C35.9853 207.932 35.8554 207.776 36.4617 207.742C36.9619 207.713 37.3708 207.478 37.3708 207.219C37.3708 206.96 36.8793 206.876 36.2788 207.033C35.6387 207.201 34.9966 207.019 34.728 206.595C34.4761 206.197 34.2662 206.062 34.2615 206.295ZM437.299 395.635C437.674 395.785 438.122 395.766 438.294 395.594C438.467 395.421 438.16 395.299 437.613 395.321C437.008 395.346 436.884 395.469 437.299 395.635ZM438.515 398.664C438.635 398.545 438.732 398.904 438.732 399.462C438.732 400.02 438.706 400.476 438.674 400.476C438.642 400.476 438.05 399.86 437.357 399.107C436.208 397.857 436.194 397.787 437.198 398.309C437.803 398.623 438.396 398.783 438.515 398.664ZM448.046 399.437C448.223 399.723 448.47 399.957 448.596 399.957C448.723 399.957 448.825 399.723 448.825 399.437C448.825 399.151 448.578 398.917 448.275 398.917C447.973 398.917 447.87 399.151 448.046 399.437ZM442.963 404.226C443.186 405.691 442.628 405.132 442.332 403.594C442.206 402.945 442.259 402.569 442.448 402.758C442.636 402.947 442.868 403.607 442.963 404.226ZM449.094 410.856C448.684 411.519 449.535 411.914 450.323 411.427C450.844 411.104 450.814 410.946 450.185 410.704C449.741 410.534 449.25 410.603 449.094 410.856ZM505.378 465.894C505.806 466.166 505.88 466.466 505.567 466.66C505.283 466.836 504.762 466.631 504.409 466.205C503.707 465.36 504.258 465.184 505.378 465.894Z" fill="white"/>
<line x1="432.28" y1="387.759" x2="456.881" y2="412.941" stroke="white" stroke-width="9.95662"/>
<rect x="31.0981" y="191.238" width="10.6312" height="20.4989" transform="rotate(-3 31.0981 191.238)" fill="white"/>
<rect x="345.027" y="193.151" width="10.2508" height="20.4989" transform="rotate(4.97063 345.027 193.151)" fill="white"/>
</svg>
