<svg width="320" height="334" viewBox="0 0 320 334" fill="none" xmlns="http://www.w3.org/2000/svg">
<path fill-rule="evenodd" clip-rule="evenodd" d="M249.761 218.603C252.982 219.527 256.267 220.39 259.629 220.557C262.828 220.716 266.026 220.342 269.188 219.898C269.573 219.844 269.959 219.789 270.346 219.733C272.185 219.471 274.051 219.205 275.922 219.019C272.482 217.465 269.141 215.742 266.113 213.346C257.551 206.571 252.653 196.295 250.134 185.873C247.372 174.442 247.334 162.749 247.627 151.068L247.648 150.253L247.678 149.106C248.001 136.638 248.332 123.869 244.851 111.787C243.055 105.557 240.124 99.9004 236.226 94.7297C234.42 92.3335 232.483 90.043 230.546 87.7525L230.543 87.7495C228.373 85.1834 226.202 82.6172 224.216 79.9021C220.705 75.104 218.225 69.8853 216.413 64.2368C215.778 62.2561 215.206 60.2544 214.634 58.2527L214.631 58.2424L214.63 58.2402L214.629 58.238C213.706 55.0061 212.782 51.7739 211.591 48.6284C209.851 44.0327 207.312 39.4378 203.191 36.5713C200.857 34.9475 198.221 33.9089 195.587 32.8709C192.757 31.7556 189.929 30.6409 187.475 28.8013C184.936 26.8965 183.143 24.4026 181.766 21.5628C181.349 20.7026 180.961 19.8264 180.574 18.95C179.707 16.9868 178.839 15.0227 177.631 13.2393C174.836 9.11231 170.285 6.51148 165.536 5.28663C153.849 2.2732 142.513 7.35279 133.509 14.6165C128.315 18.8076 123.654 23.6155 119.04 28.4233C114.415 33.2439 109.882 38.1624 105.648 43.333C96.949 53.9544 89.8673 65.7004 86.0666 78.9636C82.5434 91.26 80.9861 104.145 79.4482 116.871C79.2017 118.91 78.9558 120.945 78.7023 122.973C76.7877 138.292 75.316 153.727 75.7573 169.182C75.846 172.282 76.0964 175.44 76.3486 178.62L76.3488 178.622C77.1262 188.425 77.9202 198.436 74.0432 207.576C70.6035 215.685 63.8257 221.295 56.5283 225.874C56.6586 225.873 56.7888 225.871 56.9189 225.869C57.0821 225.866 57.2453 225.864 57.4087 225.863C57.4833 225.863 57.5579 225.864 57.6326 225.865C61.8425 225.923 66.03 226.151 70.2274 226.46C74.1003 226.745 78.0097 226.953 81.8728 226.429C83.2784 226.237 84.6725 225.965 86.0541 225.635C86.1682 225.598 86.2832 225.568 86.4008 225.549C87.8644 225.186 89.3129 224.759 90.7452 224.289C90.8537 224.24 90.964 224.197 91.0768 224.163C91.1118 224.152 91.1469 224.143 91.1823 224.134C91.212 224.126 91.2419 224.12 91.272 224.114C91.8612 223.916 92.4495 223.713 93.0324 223.503C96.5532 222.233 99.9903 220.745 103.419 219.247C106.338 217.973 109.242 216.648 111.998 215.045C114.636 213.511 117.05 211.764 119.088 209.478C121.015 207.317 122.101 205.103 122.844 202.437C124.307 197.178 124.57 191.631 124.493 186.131C121.555 183.176 118.716 180.127 116.015 176.969C113.274 173.764 110.678 170.344 108.936 166.48C107.219 162.674 106.279 158.585 106.191 154.404C106.107 150.349 106.823 146.225 108.348 142.466C108.963 140.948 109.771 139.501 110.58 138.054C111.696 136.057 112.813 134.059 113.421 131.873C113.886 130.205 113.839 128.612 113.297 126.947C112.831 125.518 112.089 124.195 111.352 122.881C111.229 122.663 111.107 122.444 110.986 122.226C110.894 122.061 110.804 121.896 110.715 121.731C108.738 118.071 107.532 114.168 107.189 110.017C106.859 106.034 107.393 101.893 108.773 98.1382C110.128 94.45 112.277 91.2339 114.547 88.0581C114.763 87.7554 114.982 87.4517 115.201 87.1467C117.086 84.5293 119.036 81.8201 120.166 78.8254C121.515 75.2444 121.397 71.5357 121.278 67.7925C121.264 67.3374 121.249 66.8818 121.237 66.426C121.129 62.2688 121.487 58.2246 123.304 54.4338C124.836 51.24 127.38 48.3816 130.52 46.6995C136.471 43.5129 145.434 43.9541 148.935 50.4993L148.954 50.5244L148.97 50.5442L148.988 50.5669C149.001 50.5833 149.013 50.5999 149.026 50.6179C149.03 50.6189 149.034 50.6189 149.039 50.6189C149.028 50.5977 149.021 50.5835 149.019 50.575C149.015 50.5625 149.019 50.5623 149.029 50.5698C149.036 50.5754 149.045 50.5855 149.056 50.5979L149.075 50.6206C149.094 50.6216 149.112 50.6223 149.127 50.6226C149.138 50.6228 149.148 50.6228 149.156 50.6223C149.177 50.6216 149.193 50.6213 149.206 50.6218L149.222 50.6228C149.237 50.6243 149.243 50.627 149.245 50.6304C149.272 50.6223 149.288 50.617 149.324 50.6065C149.458 50.5671 149.537 50.5513 149.593 50.5403C149.712 50.5169 149.724 50.5144 149.916 50.3513C149.962 50.3123 149.981 50.2988 149.992 50.2944L150.02 50.2612C150.031 50.2473 150.044 50.2322 150.061 50.2124L150.097 50.169L150.18 50.0718C150.209 50.0379 150.234 50.0068 150.248 49.9885C150.874 49.1594 151.23 48.1355 151.585 47.1157C151.684 46.8306 151.783 46.5457 151.888 46.2654C151.978 46.0264 152.071 45.7905 152.173 45.561C152.249 45.3899 152.329 45.2219 152.415 45.0586C156.091 38.082 164.5 35.1904 171.966 35.5337C176.53 35.7432 180.995 36.8911 185.335 38.2542C188.98 39.3977 192.69 40.7568 195.775 43.0637C198.937 45.4268 201.11 48.5706 202.323 52.3213C203.342 55.4736 203.668 58.8101 203.99 62.1008C204.028 62.4927 204.066 62.884 204.106 63.2742C204.459 66.7727 204.879 70.3389 206.317 73.6199C207.7 76.7744 209.737 79.5896 211.752 82.3745L211.764 82.3906L211.775 82.4067C212.07 82.8145 212.365 83.2214 212.656 83.6289C215.072 87.0027 217.197 90.4959 218.843 94.3118C220.539 98.2407 221.839 102.31 222.869 106.462C225.066 115.315 226.425 124.421 227.265 133.499C227.694 138.142 227.959 142.801 228.056 147.463C228.15 151.929 228.15 156.403 227.513 160.834C226.898 165.105 225.443 169.13 223.248 172.844C221.086 176.501 218.397 179.843 215.738 183.148L215.57 183.356C213.99 185.321 212.376 187.261 210.736 189.182C209.871 191.927 209.777 194.906 210.248 197.726C210.753 200.753 211.684 203.636 213.542 206.085C217.117 210.794 222.776 213.487 228.507 214.426C230.13 214.691 231.764 214.853 233.398 215.015C235.443 215.218 237.487 215.42 239.508 215.825C242.17 216.36 244.773 217.131 247.375 217.903L247.387 217.907C248.178 218.141 248.969 218.375 249.761 218.603ZM188.77 205.325C191.731 202.965 194.437 200.309 197.078 197.601C200.142 194.462 203.119 191.239 206.008 187.939C208.858 184.682 211.622 181.349 214.295 177.944C216.726 174.847 219.091 171.647 220.821 168.093C222.596 164.446 223.333 160.431 223.574 156.408C223.832 152.124 223.715 147.804 223.539 143.518C223.172 134.574 222.192 125.66 220.581 116.854C219.11 108.808 217.282 100.622 213.528 93.2947C212.057 90.4236 210.181 87.7844 208.307 85.1477C205.66 81.4229 203.015 77.7029 201.522 73.3411C200.397 70.0584 200.07 66.6326 199.743 63.2149C199.398 59.606 199.054 56.0061 197.773 52.593C195.221 45.7949 187.69 43.4265 181.234 41.6162C174.05 39.6025 165.824 38.5669 159.609 43.2937C158.43 44.1895 157.358 45.3447 156.604 46.5811C156.076 47.447 155.727 48.376 155.376 49.311C155.103 50.0359 154.829 50.7647 154.469 51.471C153.62 53.1404 152.163 54.5256 150.277 54.8892C148.417 55.2466 146.582 54.7039 145.472 53.1619C145.35 53.0361 145.239 52.8989 145.153 52.7393C143.946 50.47 141.695 49.346 139.263 49.1785C136.334 48.9788 133.395 49.7044 130.978 51.6243C128.646 53.4766 126.946 56.2976 126.177 59.2461C125.428 62.1162 125.55 65.1052 125.671 68.0691C125.717 69.1846 125.762 70.2964 125.761 71.397C125.757 75.54 124.942 79.4011 123.025 83.0835C121.759 85.5151 120.168 87.7546 118.581 89.9895C116.003 93.6182 113.434 97.2346 112.277 101.642C111.343 105.202 111.218 109.006 111.962 112.614C112.335 114.421 112.881 116.214 113.673 117.883C114.105 118.793 114.593 119.673 115.08 120.554C115.508 121.326 115.936 122.099 116.326 122.891C117.235 124.738 117.932 126.635 118.115 128.696C118.285 130.632 117.89 132.625 117.196 134.428C116.532 136.152 115.643 137.767 114.754 139.381L114.752 139.384C113.785 141.141 112.818 142.897 112.143 144.791C109.601 151.925 110.189 159.913 113.879 166.538C115.791 169.972 118.303 172.993 120.919 175.906C123.18 178.423 125.523 180.867 127.91 183.265C128.169 183.428 128.389 183.648 128.557 183.92C128.89 184.253 129.213 184.595 129.548 184.925C135.439 190.712 141.684 196.155 148.258 201.153C154.419 205.838 161.187 210.477 168.984 211.753C176.29 212.947 183.166 209.792 188.77 205.325ZM288.602 223.477C299.255 229.057 307.281 238.843 312.265 249.782C317.736 261.794 319.468 274.834 319.896 287.955C320.37 302.467 319.204 317.049 316.772 331.349C316.291 334.18 312.057 332.972 312.534 330.162C313.677 323.446 314.496 316.678 315.002 309.882C316.025 296.13 316.188 281.787 313.543 268.201C311.268 256.502 306.335 245.016 298.152 236.327C295.068 233.054 291.59 230.335 287.765 228.123C282.296 225.953 276.413 226.836 270.673 227.698L270.664 227.699C268.99 227.951 267.329 228.2 265.693 228.371C265.471 228.394 265.249 228.41 265.027 228.43C265.06 228.646 265.091 228.862 265.122 229.077L260.71 229.127C260.683 228.948 260.656 228.768 260.628 228.588C260.501 228.586 260.374 228.585 260.246 228.581L260.242 229.133L255.848 229.182L255.855 228.17L255.636 228.136C255.542 228.122 255.448 228.108 255.354 228.093C255.244 228.075 255.133 228.057 255.022 228.037C252.045 227.499 249.144 226.625 246.247 225.753L246.227 225.747C245.634 225.568 245.041 225.389 244.447 225.214C240.948 224.179 237.455 223.346 233.825 222.976C233.517 222.944 233.209 222.913 232.902 222.883H232.899C229.547 222.547 226.186 222.21 222.971 221.132C216.969 219.12 211.129 215.052 208.255 209.178C206.641 205.877 205.667 202.026 205.564 198.201C203.022 201.028 200.416 203.793 197.733 206.473C192.226 211.972 185.857 217.325 178.179 219.189C169.863 221.207 161.595 218.451 154.444 214.142C150.828 211.962 147.459 209.4 144.14 206.786C140.758 204.122 137.458 201.348 134.249 198.471C132.421 196.83 130.617 195.153 128.84 193.446C128.783 195.087 128.683 196.726 128.525 198.36C128.174 202 127.649 205.729 126.357 209.163C123.953 215.555 118.647 219.972 112.871 223.155C109.934 224.773 106.864 226.122 103.8 227.468L103.639 227.539C100.902 228.741 98.1542 229.927 95.3616 230.99L94.5 231L64.095 234.177C58.6813 233.902 53.2847 233.947 47.8857 234.617L47.6776 234.735C39.3362 239.436 30.9542 244.16 24.8917 251.874C16.6432 262.368 12.6054 276.013 9.6836 288.903C6.54425 302.748 4.90955 316.976 4.81507 331.182C4.79633 334.06 0.401127 334.057 0.42072 331.182C0.466191 324.251 0.895817 317.326 1.66504 310.44C3.25074 296.254 6.03528 282.008 11.0322 268.63C13.4273 262.216 16.3865 255.965 20.4528 250.46C23.9746 245.692 28.1826 241.749 33.0164 238.386C36.7933 235.758 40.8264 233.517 44.8593 231.276C50.2762 228.267 55.6928 225.257 60.4885 221.309C64.5255 217.986 68.1006 213.936 70.1106 209.008C72.6304 202.831 72.7187 195.918 72.4299 189.343C72.3084 186.57 72.1163 183.805 71.9242 181.04L71.924 181.037C71.6313 176.823 71.3386 172.61 71.2961 168.377C71.2159 160.425 71.5964 152.474 72.2463 144.551C73.5253 128.976 75.5549 113.387 77.9232 97.9458C80.1561 83.3821 83.9033 69.3665 91.4325 56.6497C98.5526 44.6255 107.911 34.1477 117.473 24.1021C126.406 14.7163 136.328 4.78053 149.096 1.24903C159.341 -1.58471 171.982 0.222177 179.381 8.5464C181.374 10.7871 182.769 13.3596 183.976 16.1013C184.149 16.4922 184.319 16.8875 184.49 17.2844C185.596 19.8547 186.734 22.499 188.703 24.4927C191.24 27.062 194.608 28.3711 197.97 29.678L197.972 29.6787C200.222 30.5532 202.468 31.4268 204.461 32.676C213.268 38.1931 216.186 48.5232 218.893 58.1033C219.15 59.012 219.405 59.9138 219.662 60.8042C221.303 66.4714 223.266 71.8479 226.52 76.7842C228.804 80.2498 231.455 83.4292 234.106 86.6082L234.116 86.6213C235.677 88.4934 237.238 90.365 238.723 92.2954C242.789 97.5803 246.065 103.23 248.215 109.596C250.386 116.027 251.407 122.814 251.886 129.577C252.391 136.722 252.216 144.08 252.04 151.475C251.623 168.947 251.201 186.626 259.751 202.193C262.312 206.858 265.718 211.108 270.009 214.238C273.576 216.838 277.584 218.55 281.596 220.264C283.96 221.273 286.325 222.284 288.602 223.477ZM272 332.689C272.821 332.191 273.391 331.112 273.037 330.162C272.672 329.179 272.326 328.191 272 327.199V332.689Z" fill="white"/>
</svg>
